<?xml version="1.0" encoding="UTF-8"?>
<svg width="24px" height="24px" viewBox="0 0 24 24" version="1.1" xmlns="http://www.w3.org/2000/svg" xmlns:xlink="http://www.w3.org/1999/xlink">
    <title>07_Common_Status/common_status_waiting</title>
    <g id="07_Common_Status/common_status_waiting" stroke="none" stroke-width="1" fill="none" fill-rule="evenodd">
        <path d="M13,11.6 L13,9 C13,8.4 12.6,8 12,8 C11.4,8 11,8.4 11,9 L11,12 C11,12.3 11.1,12.5 11.3,12.7 L13.4,14.8 C13.8,15.2 14.4,15.2 14.8,14.8 C15.2,14.4 15.2,13.8 14.8,13.4 L13,11.6 Z M12,4 C7.6,4 4,7.6 4,12 C4,16.4 7.6,20 12,20 C16.4,20 20,16.4 20,12 C20,7.6 16.4,4 12,4 Z M12,18 C8.7,18 6,15.3 6,12 C6,8.7 8.7,6 12,6 C15.3,6 18,8.7 18,12 C18,12 18,12 18,12 C18,15.3 15.3,18 12,18 C12,18 12,18 12,18 Z" id="Color" fill="#000000" fill-rule="nonzero"></path>
    </g>
</svg>