<?xml version="1.0" encoding="UTF-8"?>
<svg width="24px" height="24px" viewBox="0 0 24 24" version="1.1" xmlns="http://www.w3.org/2000/svg" xmlns:xlink="http://www.w3.org/1999/xlink">
    <title>common_禁用</title>
    <defs>
        <path d="M12.5,4 C16.641875,4 20,7.358125 20,11.5 C20,15.641875 16.641875,19 12.5,19 C8.358125,19 5,15.641875 5,11.5 C5,7.358125 8.358125,4 12.5,4 Z M12.5,5 C8.91014286,5 6,7.91014286 6,11.5 C6,15.0898571 8.91014286,18 12.5,18 C16.0898571,18 19,15.0898571 19,11.5 C19,7.91014286 16.0898571,5 12.5,5 Z M7.90380592,6.19669914 L17.8033009,16.0961941 C17.998563,16.2914562 17.998563,16.6080387 17.8033009,16.8033009 C17.6080387,16.998563 17.2914562,16.998563 17.0961941,16.8033009 L7.19669914,6.90380592 C7.001437,6.70854378 7.001437,6.39196129 7.19669914,6.19669914 C7.39196129,6.001437 7.70854378,6.001437 7.90380592,6.19669914 Z" id="path-1"></path>
    </defs>
    <g id="common_禁用" stroke="none" stroke-width="1" fill="none" fill-rule="evenodd">
        <mask id="mask-2" fill="white">
            <use xlink:href="#path-1"></use>
        </mask>
        <use id="Color" fill-opacity="0.7" fill="#FFFFFF" fill-rule="nonzero" xlink:href="#path-1"></use>
    </g>
</svg>