<?xml version="1.0" encoding="UTF-8"?>
<svg width="24px" height="24px" viewBox="0 0 24 24" version="1.1" xmlns="http://www.w3.org/2000/svg" xmlns:xlink="http://www.w3.org/1999/xlink">
    <title>01_Common_Btn/1_Common/common_list</title>
    <g id="01_Common_Btn/1_Common/common_list" stroke="none" stroke-width="1" fill="none" fill-rule="evenodd" fill-opacity="0.7">
        <path d="M16.4903505,15 C16.7405475,15 16.9486359,15.1832562 16.9917889,15.4122514 L17,15.5 C17,15.7761424 16.7723472,16 16.4903505,16 L7.50964952,16 C7.22817786,16 7,15.7680664 7,15.5 C7,15.2238576 7.22765279,15 7.50964952,15 L16.4903505,15 Z M16.4903505,11 C16.7405475,11 16.9486359,11.1832562 16.9917889,11.4122514 L17,11.5 C17,11.7761424 16.7723472,12 16.4903505,12 L7.50964952,12 C7.22817786,12 7,11.7680664 7,11.5 C7,11.2238576 7.22765279,11 7.50964952,11 L16.4903505,11 Z M16.4903505,7 C16.7405475,7 16.9486359,7.18325617 16.9917889,7.41225137 L17,7.5 C17,7.77614237 16.7723472,8 16.4903505,8 L7.50964952,8 C7.22817786,8 7,7.76806641 7,7.5 C7,7.22385763 7.22765279,7 7.50964952,7 L16.4903505,7 Z" id="Color" fill="#FFFFFF" fill-rule="nonzero"></path>
    </g>
</svg>