<?xml version="1.0" encoding="UTF-8"?>
<svg width="24px" height="24px" viewBox="0 0 24 24" version="1.1" xmlns="http://www.w3.org/2000/svg" xmlns:xlink="http://www.w3.org/1999/xlink">
    <title>07_Common_Status/common_status_alert_tips</title>
    <g id="07_Common_Status/common_status_alert_tips" stroke="none" stroke-width="1" fill="none" fill-rule="evenodd">
        <path d="M6.5,1 C9.53756612,1 12,3.46243388 12,6.5 C12,9.53756612 9.53756612,12 6.5,12 C3.46243388,12 1,9.53756612 1,6.5 C1,3.46243388 3.46243388,1 6.5,1 Z M6.5,2 C4.01471863,2 2,4.01471863 2,6.5 C2,8.98528137 4.01471863,11 6.5,11 C8.98528137,11 11,8.98528137 11,6.5 C11,4.01471863 8.98528137,2 6.5,2 Z M7,6 L7,9 L6,9 L6,6 L7,6 Z M7,4 L7,5 L6,5 L6,4 L7,4 Z" id="Color" fill="#91A4AE"></path>
    </g>
</svg>