<?xml version="1.0" encoding="UTF-8"?>
<svg width="24px" height="24px" viewBox="0 0 24 24" version="1.1" xmlns="http://www.w3.org/2000/svg" xmlns:xlink="http://www.w3.org/1999/xlink">
    <title>01_Common_Btn/1_Common/common_more_hori</title>
    <g id="01_Common_Btn/1_Common/common_more_hori" stroke="none" stroke-width="1" fill="none" fill-rule="evenodd" fill-opacity="0.7">
        <path d="M11,12 C11,11.4 11.4,11 12,11 C12.6,11 13,11.4 13,12 C13,12.6 12.6,13 12,13 C11.4,13 11,12.6 11,12 Z M6,12 C6,11.4 6.4,11 7,11 C7.6,11 8,11.4 8,12 C8,12.6 7.6,13 7,13 C6.4,13 6,12.6 6,12 Z M16,12 C16,11.4 16.4,11 17,11 C17.6,11 18,11.4 18,12 C18,12.6 17.6,13 17,13 C16.4,13 16,12.6 16,12 Z" id="Color" fill="#FFFFFF" fill-rule="nonzero"></path>
    </g>
</svg>