<svg t="1581914804048" class="icon" viewBox="0 0 1024 1024" version="1.1" xmlns="http://www.w3.org/2000/svg" p-id="4066" width="200" height="200"><path d="M327.2 547.4s-37.3 77.8-25.9 400.1c0 0 283.5 102.9 504.6-51 0 0-303.8-157.9-478.7-349.1zM696.8 476.6s37.3-77.8 25.9-400.1c0 0-283.5-102.9-504.6 51 0 0 303.8 157.9 478.7 349.1zM476.6 327.2s-77.8-37.3-400.1-25.9c0 0-102.9 283.5 51 504.6 0 0 157.9-303.8 349.1-478.7zM896.5 218.1S738.6 521.8 547.4 696.8c0 0 77.8 37.3 400.1 25.9 0 0 102.9-283.5-51-504.6z m-19.1 447.6c-23.1 0-41.9-18.8-41.9-41.9 0-23.1 18.8-41.9 41.9-41.9 23.1 0 41.9 18.8 41.9 41.9 0 23.1-18.8 41.9-41.9 41.9z" p-id="4067" fill="#1296db"></path></svg>