<?xml version="1.0" encoding="UTF-8"?>
<svg width="20px" height="20px" viewBox="0 0 20 20" version="1.1" xmlns="http://www.w3.org/2000/svg" xmlns:xlink="http://www.w3.org/1999/xlink">
    <title>guanli</title>
    <g id="控件" stroke="none" stroke-width="1" fill="none" fill-rule="evenodd">
        <g id="左侧导航栏收起" transform="translate(-22.000000, -130.000000)" fill="#E6E6E6" fill-rule="nonzero">
            <g id="guanli" transform="translate(22.000000, 130.000000)">
                <path d="M15.8333333,15 C16.2935706,15 16.6666667,15.3730961 16.6666667,15.8333333 L16.6666667,16.6666667 L20,16.6666667 L20,18.3333333 L16.6666667,18.3333333 L16.6666667,19.1666667 C16.6666667,19.6269039 16.2935706,20 15.8333333,20 L12.5,20 C12.0397627,20 11.6666667,19.626904 11.6666667,19.1666667 L11.6666667,15.8333333 C11.6666667,15.373096 12.0397627,15 12.5,15 L15.8333333,15 Z M10,16.6666667 L10,18.3333333 L0,18.3333333 L0,16.6666667 L10,16.6666667 Z M4.16666666,7.5 C4.3876804,7.5 4.599642,7.58779737 4.75592232,7.74407768 C4.91220263,7.900358 5,8.1123196 5,8.33333334 L5,11.6666667 C5,12.126904 4.62690396,12.5 4.16666666,12.5 L0.83333334,12.5 C0.612319597,12.5 0.400358001,12.4122026 0.244077684,12.2559223 C0.0877973677,12.099642 0,11.8876804 0,11.6666667 L0,8.33333334 C0,8.1123196 0.0877973677,7.900358 0.244077684,7.74407768 C0.400358001,7.58779737 0.612319597,7.5 0.83333334,7.5 L4.16666666,7.5 Z M20,9.16666666 L20,10.8333333 L6.66666666,10.8333333 L6.66666666,9.16666666 L20,9.16666666 Z M4.16666666,0 C4.62690396,0 5,0.373096045 5,0.83333334 L5,4.16666666 C5,4.62690396 4.62690396,5 4.16666666,5 L0.83333334,5 C0.373096045,5 4.4408921e-16,4.62690396 4.4408921e-16,4.16666666 L4.4408921e-16,0.83333334 C4.4408921e-16,0.373096045 0.373096045,0 0.83333334,0 L4.16666666,0 Z M20,1.66666666 L20,3.33333334 L6.66666666,3.33333334 L6.66666666,1.66666666 L20,1.66666666 Z" id="形状"></path>
            </g>
        </g>
    </g>
</svg>