<?xml version="1.0" encoding="UTF-8"?>
<svg width="24px" height="24px" viewBox="0 0 24 24" version="1.1" xmlns="http://www.w3.org/2000/svg" xmlns:xlink="http://www.w3.org/1999/xlink">
    <title>05_Common_Navigation/1_Left/nav_dashboard</title>
    <g id="05_Common_Navigation/1_Left/nav_dashboard" stroke="none" stroke-width="1" fill="none" fill-rule="evenodd">
        <path d="M13.5,2 L13.5,3 L24,3 L24,4 L23,4 L23,18.35 C23,19.2612698 22.2612698,20 21.35,20 L14.523,20 L19.1854216,23.9994097 L17.6494216,23.9994097 L12.987,20 L11.017,20 L6.37242161,23.9994097 L4.84142161,23.9994097 L9.485,20 L2.65,20 C1.73873016,20 1,19.2612698 1,18.35 L1,4 L0,4 L0,3 L10.5,3 L10.5,2 L13.5,2 Z M22,4 L2,4 L2,18.35 C2,18.7089851 2.29101491,19 2.65,19 L21.35,19 C21.7089851,19 22,18.7089851 22,18.35 L22,4 Z M6.8420839,7.71627356 L6.84183635,8.73982969 C5.70275056,9.28014783 4.94736842,10.4365694 4.94736842,11.7368421 C4.94736842,13.5681021 6.43189793,15.0526316 8.26315789,15.0526316 C9.55835639,15.0526316 10.7117228,14.3031488 11.2548,13.1693577 L12.28,13.1686842 L12.2734701,13.1866043 C11.6802,14.82739 10.1086178,16 8.26315789,16 C5.9086808,16 4,14.0913192 4,11.7368421 C4,9.88064439 5.18629537,8.3015208 6.8420839,7.71627356 Z M20,8 L20,15 L18,15 L18,8 L20,8 Z M17,12 L17,15 L15,15 L15,12 L17,12 Z M8.02631579,7 C10.7732057,7 13,9.21619049 13,11.95 C13,12.0374792 12.9977199,12.1244284 12.9932156,12.2107919 L7.78947368,12.21 L7.78942086,7.00551587 C7.86792364,7.0018523 7.94690237,7 8.02631579,7 Z" id="Color" fill="#FFFFFF" fill-rule="nonzero"></path>
    </g>
</svg>