<?xml version="1.0" encoding="UTF-8"?>
<svg width="22px" height="22px" viewBox="0 0 22 22" version="1.1" xmlns="http://www.w3.org/2000/svg" xmlns:xlink="http://www.w3.org/1999/xlink">
    <title>1_Common/common_运维</title>
    <g id="控件" stroke="none" stroke-width="1" fill="none" fill-rule="evenodd" opacity="0.900000036">
        <g id="左侧导航栏收起" transform="translate(-21.000000, -239.000000)" fill="#FFFFFF" fill-rule="nonzero">
            <g id="1_Common/common_运维" transform="translate(16.000000, 234.000000)">
                <g id="编组-3" transform="translate(5.333333, 5.333333)">
                    <path d="M20.714943,20.0490682 C21.0564617,20.0490682 21.3333333,20.3365344 21.3333333,20.6912141 C21.3333333,21.0458671 21.0564617,21.3333333 20.714943,21.3333333 L0.618364569,21.3333333 C0.276845883,21.3333333 0,21.0458404 0,20.6912141 C0,20.3365344 0.276845883,20.0490682 0.618364569,20.0490682 L20.714943,20.0490682 Z M19.1690445,0 C20.3623927,0 21.3333076,1.0082281 21.3333076,2.24749735 L21.3333076,15.0902288 C21.3333076,16.3294446 20.3624184,17.337646 19.1690702,17.337646 L2.16423742,17.337646 C0.970889203,17.337646 0,16.3294179 0,15.090202 L0,2.24749735 C0,1.0082281 0.970889203,0 2.16423742,0 L19.1690445,0 Z M19.1690445,1.28426513 L2.16423742,1.28426513 C1.65279512,1.28426513 1.23672914,1.71633237 1.23672914,2.24747065 L1.23672914,15.090202 C1.23672914,15.6212869 1.65282084,16.0534076 2.16423742,16.0534076 L19.1690445,16.0534076 C19.6805125,16.0534076 20.0966042,15.6212602 20.0966042,15.090202 L20.0966042,2.24749735 C20.0966042,1.71633237 19.6804868,1.28426513 19.1690445,1.28426513 Z M11.1449677,4 C11.4201291,4 11.6663799,4.18916824 11.6965908,4.43541837 L11.6965908,4.43541837 L11.8180462,5.42544131 C12.1017094,5.51129461 12.3750389,5.62817048 12.6330778,5.77394937 L12.6330778,5.77394937 L13.419428,5.15943304 C13.6149193,5.00664527 13.9228411,5.04702835 14.1174401,5.2416014 L14.1174401,5.2416014 L14.7761398,5.90032497 C14.9706878,6.09489802 15.0110965,6.40276805 14.8583083,6.59828439 L14.8583083,6.59828439 L14.2257659,7.40765421 C14.3604279,7.66077186 14.4676544,7.92755556 14.5456191,8.20346102 L14.5456191,8.20346102 L15.5645551,8.32843443 C15.8108823,8.35861977 16,8.60492089 16,8.88008165 L16,8.88008165 L16,9.81162049 C16,10.0867812 15.8109078,10.3330824 15.5645806,10.3632932 L15.5645806,10.3632932 L14.5226486,10.491071 C14.4411483,10.7588042 14.3319783,11.0173186 14.1969063,11.2624287 L14.1969063,11.2624287 L14.8406152,12.0861009 C14.9934033,12.2815917 14.9530711,12.5894617 14.7584466,12.7841113 L14.7584466,12.7841113 L14.099696,13.4427584 C13.905199,13.6373824 13.5973027,13.677791 13.4017604,13.5250032 L13.4017604,13.5250032 L12.572197,12.8766813 C12.3260876,13.0100025 12.0667724,13.1173511 11.798441,13.1969926 L11.798441,13.1969926 L11.6716062,14.2311973 C11.6413698,14.4774729 11.3950936,14.6666667 11.1199577,14.6666667 L11.1199577,14.6666667 L10.1883911,14.6666667 C9.9132297,14.6666667 9.66697897,14.4774729 9.63674258,14.2311973 L9.63674258,14.2311973 L9.51085107,13.2047174 C9.23539834,13.1249114 8.96924366,13.0159525 8.71690345,12.8796897 L8.71690345,12.8796897 L7.9139053,13.5072081 C7.7183885,13.6600214 7.41051773,13.6196893 7.21591872,13.4250398 L7.21591872,13.4250398 L6.55719357,12.7663162 C6.36264556,12.5717941 6.32226238,12.2638731 6.47505051,12.0683823 L6.47505051,12.0683823 L7.09413182,11.2762467 C6.95003699,11.0171891 6.83497247,10.7430202 6.75102774,10.4587186 L6.75102774,10.4587186 L5.76875275,10.3382067 C5.52245103,10.3080214 5.33333333,10.0617458 5.33333333,9.78661052 L5.33333333,9.78661052 L5.33333333,8.85502068 C5.33333333,8.57985992 5.52245103,8.33360979 5.76875275,8.30337346 L5.76875275,8.30337346 L6.74332843,8.18385585 C6.82731385,7.89237813 6.94392386,7.6113089 7.09094501,7.34598332 L7.09094501,7.34598332 L6.49274365,6.58059129 C6.33998101,6.38507496 6.38038968,6.07720492 6.5749377,5.88263188 L6.5749377,5.88263188 L7.23363735,5.2239083 C7.42821086,5.02930976 7.73613262,4.98895217 7.93162393,5.14173994 L7.93162393,5.14173994 L8.70285601,5.74447788 C8.96918521,5.59924733 9.251061,5.48455249 9.54312702,5.40257286 L9.54312702,5.40257286 L9.66172712,4.43541837 C9.69196352,4.18916824 9.93821424,4 10.2133757,4 L10.2133757,4 Z M10.6667431,7.15495399 C9.46360988,7.15495399 8.48829487,8.13024118 8.48829487,9.33334608 C8.48829487,10.5364255 9.46360988,11.5117382 10.6667431,11.5117382 C11.8698254,11.5117382 12.8450895,10.536451 12.8450895,9.33334608 C12.8450895,8.13024118 11.8698254,7.15495399 10.6667431,7.15495399 Z" id="形状结合"></path>
                </g>
            </g>
        </g>
    </g>
</svg>