<?xml version="1.0" encoding="UTF-8"?>
<svg width="24px" height="24px" viewBox="0 0 24 24" version="1.1" xmlns="http://www.w3.org/2000/svg" xmlns:xlink="http://www.w3.org/1999/xlink">
    <title>13-NAV/点击展开</title>
    <defs>
        <linearGradient x1="50%" y1="3.79457709%" x2="50%" y2="98.0513909%" id="linearGradient-1">
            <stop stop-color="#FFFFFF" stop-opacity="0.696982563" offset="0%"></stop>
            <stop stop-color="#FFFFFF" stop-opacity="0" offset="100%"></stop>
        </linearGradient>
    </defs>
    <g id="13-NAV/点击展开" stroke="none" stroke-width="1" fill="none" fill-rule="evenodd">
        <path d="M2.5,4 L21.5,4 C21.7761424,4 22,4.22385763 22,4.5 C22,4.77614237 21.7761424,5 21.5,5 L2.5,5 C2.22385763,5 2,4.77614237 2,4.5 C2,4.22385763 2.22385763,4 2.5,4 Z" id="矩形" fill="#FFFFFF"></path>
        <path d="M2.5,11 L21.5,11 C21.7761424,11 22,11.2238576 22,11.5 C22,11.7761424 21.7761424,12 21.5,12 L2.5,12 C2.22385763,12 2,11.7761424 2,11.5 C2,11.2238576 2.22385763,11 2.5,11 Z" id="矩形备份" fill="#FFFFFF"></path>
        <path d="M2.5,18 L16.5,18 C16.7761424,18 17,18.2238576 17,18.5 C17,18.7761424 16.7761424,19 16.5,19 L2.5,19 C2.22385763,19 2,18.7761424 2,18.5 C2,18.2238576 2.22385763,18 2.5,18 Z" id="矩形备份-2" fill="#FFFFFF"></path>
        <polygon id="矩形" stroke="#FFFFFF" fill="url(#linearGradient-1)" fill-rule="nonzero" stroke-linejoin="round" points="16.5 15.5 21.5 18.5 16.5 21.5"></polygon>
    </g>
</svg>