<?xml version="1.0" encoding="UTF-8"?>
<svg width="24px" height="24px" viewBox="0 0 24 24" version="1.1" xmlns="http://www.w3.org/2000/svg" xmlns:xlink="http://www.w3.org/1999/xlink">
    <title>12_Business/02_PTZ/1_Common/ptz_play</title>
    <g id="12_Business/02_PTZ/1_Common/ptz_play" stroke="none" stroke-width="1" fill="none" fill-rule="evenodd">
        <path d="M12,5 C8.1,5 5,8.1 5,12 C5,15.9 8.1,19 12,19 C15.9,19 19,15.9 19,12 C19,8.1 15.9,5 12,5 Z M12,17.4 C9,17.4 6.6,15 6.6,12 C6.6,9 9,6.6 12,6.6 C15,6.6 17.4,9 17.4,12 C17.4,15 15,17.4 12,17.4 Z M10,9 L10,15 L15,12 L10,9 Z" id="Color" fill="#FFFFFF" fill-opacity="0.7" fill-rule="nonzero"></path>
    </g>
</svg>