<?xml version="1.0" encoding="UTF-8"?>
<svg width="16px" height="16px" viewBox="0 0 16 16" version="1.1" xmlns="http://www.w3.org/2000/svg" xmlns:xlink="http://www.w3.org/1999/xlink">
    <title>python</title>
    <defs>
        <filter id="filter-1">
            <feColorMatrix in="SourceGraphic" type="matrix" values="0 0 0 0 0.082353 0 0 0 0 0.917647 0 0 0 0 0.792157 0 0 0 1.000000 0"></feColorMatrix>
        </filter>
    </defs>
    <g id="08-流程管理" stroke="none" stroke-width="1" fill="none" fill-rule="evenodd">
        <g id="02-流程管理-创建流程-流程画布" transform="translate(-275.000000, -175.000000)">
            <g id="编组-3" transform="translate(256.000000, 112.000000)">
                <g id="python" transform="translate(0.000000, 55.000000)" filter="url(#filter-1)">
                    <g transform="translate(19.000000, 8.000000)">
                        <path d="M6.28168662,0.00623751871 C5.02020958,0.00623751871 3.9982535,1.02819362 3.9982535,2.28967066 L3.9982535,3.63098802 L7.4234032,3.63098802 C7.73478045,3.63098802 7.99026946,4.08607784 7.99026946,4.39745509 L2.28967066,4.39745509 C1.02819362,4.39745509 0.00623751871,5.41941117 0.00623751871,6.68088823 L0.00623751871,9.69965069 C0.00623751871,10.9611277 1.0281936,11.9830838 2.28967066,11.9830838 L3.23178643,11.9830838 L3.23178643,9.84336327 C3.23178643,8.58188623 4.2457585,7.55993013 5.50723554,7.55993015 L9.6988523,7.55993015 C10.9603293,7.55993015 11.9822854,6.54515969 11.9822854,5.28368263 L11.9822854,2.28967066 C11.9822854,1.02819362 10.9603293,0.00623751871 9.6988523,0.00623751871 L6.28168662,0.00623751871 Z M5.70683632,1.29166667 C6.0261976,1.29166667 6.28168662,1.38747506 6.28168662,1.85853293 C6.28168662,2.32959081 6.0261976,2.56991018 5.70683632,2.56991018 C5.39545908,2.56991018 5.13997006,2.33038922 5.13997006,1.85933134 C5.13997006,1.38827347 5.39545908,1.29166667 5.70683632,1.29166667 Z" id="形状" fill="#3C78AA" fill-rule="nonzero"></path>
                        <path d="M12.7479541,3.9982535 L12.7479541,6.13797405 C12.7498638,6.74270471 12.510973,7.32332181 12.0840363,7.75160667 C11.6570997,8.17989153 11.0772387,8.42061179 10.472505,8.42060878 L6.28168662,8.42060878 C5.67681785,8.41848642 5.09599524,8.65728328 4.66753741,9.08424302 C4.23907957,9.51120275 3.9982535,10.0911854 3.9982535,10.6960579 L3.9982535,13.6900699 C3.9982535,14.9511751 5.02058133,15.973503 6.28168662,15.973503 L9.6988523,15.973503 C10.9596459,15.973503 11.9818446,14.9516617 11.9822854,13.6908683 L11.9822854,12.3495509 L8.55633733,12.3495509 C8.24496009,12.3495509 7.99026946,11.8944611 7.99026946,11.5830838 L13.6908683,11.5830838 C14.9519736,11.5830838 15.9743014,10.560756 15.9743014,9.29965069 L15.9743014,6.28168662 C15.9743014,5.02058133 14.9519736,3.9982535 13.6908683,3.9982535 L12.7479541,3.9982535 Z M5.05947843,7.63515427 L5.0489521,7.65222097 C5.08053105,7.64368767 5.1147416,7.64795427 5.1489521,7.63515427 L5.05947843,7.63515427 Z M10.2737026,13.4106287 C10.5850798,13.4106287 10.8405689,13.6501497 10.8405689,14.1212076 C10.8405689,14.2715499 10.7808456,14.4157345 10.6745376,14.5220426 C10.5682295,14.6283506 10.4240449,14.6880739 10.2737026,14.6880739 C9.95434132,14.6880739 9.6988523,14.5922655 9.6988523,14.1212076 C9.6988523,13.6501497 9.95434132,13.4106287 10.2737026,13.4106287 Z" id="形状" fill="#FDD835" fill-rule="nonzero"></path>
                    </g>
                </g>
            </g>
        </g>
    </g>
</svg>