<?xml version="1.0" encoding="UTF-8"?>
<svg width="16px" height="16px" viewBox="0 0 16 16" version="1.1" xmlns="http://www.w3.org/2000/svg" xmlns:xlink="http://www.w3.org/1999/xlink">
    <title>spark</title>
    <defs>
        <filter id="filter-1">
            <feColorMatrix in="SourceGraphic" type="matrix" values="0 0 0 0 0.082353 0 0 0 0 0.917647 0 0 0 0 0.792157 0 0 0 1.000000 0"></feColorMatrix>
        </filter>
    </defs>
    <g id="08-流程管理" stroke="none" stroke-width="1" fill="none" fill-rule="evenodd">
        <g id="02-流程管理-创建流程-流程画布" transform="translate(-275.000000, -207.000000)">
            <g id="编组-3" transform="translate(256.000000, 112.000000)">
                <g id="spark" transform="translate(0.000000, 87.000000)" filter="url(#filter-1)">
                    <g transform="translate(19.000000, 8.000000)">
                        <path d="M8.70697464,0.735960139 C8.70697464,0.337409409 8.38088769,0.0113224694 7.98233696,0.0113224694 C7.58378623,0.0113224694 7.25769927,0.337409426 7.25769927,0.735960139 L7.25769927,3.9968297 C7.25769927,4.39538043 7.58378623,4.72146739 7.98233696,4.72146739 C8.38088769,4.72146739 8.70697464,4.39538043 8.70697464,3.9968297 L8.70697464,0.735960139 Z M7.98233696,11.2432065 C7.58378623,11.2432065 7.25769927,11.5692935 7.25769927,11.9678442 L7.25769927,15.2287138 C7.25769927,15.6272645 7.58378623,15.9533514 7.98233696,15.9533514 C8.38088769,15.9533514 8.70697464,15.6272645 8.70697464,15.2287138 L8.70697464,11.9678442 C8.70697464,11.5692935 8.38088769,11.2432065 7.98233696,11.2432065 M15.9533514,7.98233696 C15.9533514,7.58378623 15.6272645,7.25769927 15.2287138,7.25769927 L11.9678442,7.25769927 C11.5692935,7.25769927 11.2432065,7.58378623 11.2432065,7.98233696 C11.2432065,8.38088769 11.5692935,8.70697464 11.9678442,8.70697464 L15.2287138,8.70697464 C15.6272645,8.70697464 15.9533514,8.38088769 15.9533514,7.98233696 M0.735960139,8.70697464 L3.9968297,8.70697464 C4.39538043,8.70697464 4.72146739,8.38088769 4.72146739,7.98233696 C4.72146739,7.58378623 4.39538043,7.25769927 3.9968297,7.25769927 L0.735960139,7.25769927 C0.337409409,7.25769927 0.0113224694,7.58378623 0.0113224694,7.98233696 C0.0113224694,8.38088769 0.337409426,8.70697464 0.735960139,8.70697464 M12.5837862,2.33016304 L10.2649457,4.64900362 C9.97509057,4.9388587 9.97509057,5.3736413 10.2649457,5.66349638 C10.4098732,5.80842391 10.5910326,5.88088769 10.772192,5.88088769 C10.9533515,5.88088769 11.1345109,5.80842391 11.2794384,5.66349638 L13.598279,3.34465579 C13.8881341,3.05480071 13.8881341,2.6200181 13.598279,2.33016304 C13.3446558,2.07653986 12.8736413,2.07653986 12.5837862,2.33016304 M2.8736413,13.8156703 C3.05480073,13.8156703 3.23596014,13.7432065 3.38088769,13.598279 L5.69972826,11.2794384 C5.98958334,10.9895833 5.98958334,10.5548007 5.69972826,10.2649457 C5.40987318,9.97509057 4.97509057,9.97509057 4.68523551,10.2649457 L2.36639492,12.5837862 C2.07653984,12.8736413 2.07653984,13.3084239 2.36639492,13.598279 C2.47509057,13.7432065 2.69248188,13.8156703 2.8736413,13.8156703 M12.5837862,13.6345109 C12.7287138,13.7794384 12.9098732,13.8519022 13.0910326,13.8519022 C13.272192,13.8519022 13.4533514,13.7794384 13.598279,13.6345109 C13.8881341,13.3446558 13.8881341,12.9098732 13.598279,12.6200181 L11.2794384,10.3011775 C10.9895833,10.0113225 10.5548007,10.0113225 10.2649457,10.3011775 C9.97509057,10.5910326 9.97509057,11.0258152 10.2649457,11.3156703 L12.5837862,13.6345109 Z M5.66349638,4.64900362 L3.38088769,2.33016304 C3.09103261,2.04030797 2.65625,2.04030797 2.36639492,2.33016304 C2.07653984,2.62001812 2.07653984,3.05480073 2.36639492,3.34465579 L4.68523551,5.66349638 C4.83016304,5.80842391 5.01132247,5.88088769 5.19248188,5.88088769 C5.3736413,5.88088769 5.55480071,5.80842391 5.69972826,5.66349638 C5.95335144,5.4098732 5.95335144,4.9388587 5.66349638,4.64900362" id="形状" fill="#707070" fill-rule="nonzero"></path>
                    </g>
                </g>
            </g>
        </g>
    </g>
</svg>