<?xml version="1.0" encoding="UTF-8"?>
<svg width="16px" height="16px" viewBox="0 0 16 16" version="1.1" xmlns="http://www.w3.org/2000/svg" xmlns:xlink="http://www.w3.org/1999/xlink">
    <!-- Generator: Sketch 61.2 (89653) - https://sketch.com -->
    <title>icon/等待执行</title>
    <desc>Created with Sketch.</desc>
    <g id="icon/等待执行" stroke="none" stroke-width="1" fill="none" fill-rule="evenodd">
        <g id="icon/准备执行">
            <rect id="矩形" opacity="0.287876674" x="0" y="0" width="16" height="16"></rect>
            <circle id="椭圆形" fill="#FFFFFF" opacity="0.12" cx="8" cy="8" r="7"></circle>
            <path d="M8,4 C10.209139,4 12,5.790861 12,8 C12,10.209139 10.209139,12 8,12 C5.790861,12 4,10.209139 4,8 C4,5.790861 5.790861,4 8,4 Z M7.5,6 C7.22385763,6 7,6.22385763 7,6.5 L7,6.5 L7,8.5 C7,8.77614237 7.22385763,9 7.5,9 L7.5,9 L9.5,9 C9.77614237,9 10,8.77614237 10,8.5 C10,8.22385763 9.77614237,8 9.5,8 L9.5,8 L8,8 L8,6.5 C8,6.22385763 7.77614237,6 7.5,6 Z" id="形状结合" fill-opacity="0.6" fill="#FFFFFF"></path>
        </g>
    </g>
</svg>