<?xml version="1.0" encoding="UTF-8"?>
<svg width="24px" height="24px" viewBox="0 0 24 24" version="1.1" xmlns="http://www.w3.org/2000/svg" xmlns:xlink="http://www.w3.org/1999/xlink">
    <!-- Generator: Sketch 61.2 (89653) - https://sketch.com -->
    <title>缩略图</title>
    <desc>Created with Sketch.</desc>
    <g id="算法训练" stroke="none" stroke-width="1" fill="none" fill-rule="evenodd">
        <g id="03-算法训练-3" transform="translate(-617.000000, -764.000000)">
            <g id="缩略图" transform="translate(617.000000, 764.000000)">
                <rect id="矩形" fill="#3E4354" fill-rule="nonzero" x="0" y="0" width="24" height="24" rx="2"></rect>
                <g id="编组-12">
                    <rect id="矩形备份" opacity="0.134300595" x="0" y="0" width="24" height="24"></rect>
                    <path d="M7.99911852,15.4617769 L16.2896478,7.14549054 C16.4849048,6.95023351 16.8029428,6.95169727 17,7.14875995 C17.1970681,7.34582262 17.1985319,7.66386057 17.0032748,7.8591176 L8.73369842,16.1544512 L14.5,16.1487599 C14.7774174,16.1500367 14.9987287,16.371348 15,16.6487599 C15.0012822,16.9261719 14.7774174,17.1500367 14.5,17.1487599 L7.50461597,17.1533705 C7.22720405,17.1520937 7.00128222,16.9261719 7,16.6487599 L7,9.64875995 C6.99872865,9.37134803 7.22259351,9.14748316 7.5,9.14875995 C7.77741736,9.15003673 7.99872865,9.37134803 8,9.64875995 L7.99911852,15.4617769 Z" id="Color" fill-opacity="0.7" fill="#FFFFFF" fill-rule="nonzero"></path>
                </g>
            </g>
        </g>
    </g>
</svg>