<?xml version="1.0" encoding="UTF-8"?>
<svg width="24px" height="24px" viewBox="0 0 24 24" version="1.1" xmlns="http://www.w3.org/2000/svg" xmlns:xlink="http://www.w3.org/1999/xlink">
    <!-- Generator: Sketch 61.2 (89653) - https://sketch.com -->
    <title>clip.svg</title>
    <desc>Created with Sketch.</desc>
    <g id="clip.svg" stroke="none" stroke-width="1" fill="none" fill-rule="evenodd">
        <g id="icon_sort" opacity="0.297177269">
            <rect id="矩形" x="0" y="0" width="24" height="24"></rect>
        </g>
        <path d="M16.0380089,13.31189 C15.5402921,13.3151731 15.0514039,13.4436514 14.6163789,13.68549 L13.4161289,12.48529 L18.3659589,7.53546 C19.1469694,6.75441795 19.1469694,5.48813205 18.3659589,4.70709 L17.6588689,4 L12.0019389,9.65689 L6.34500885,4 L5.63800885,4.70709 C5.26290211,5.08213312 5.05216398,5.59083894 5.05216398,6.121275 C5.05216398,6.65171106 5.26290211,7.16041688 5.63800885,7.53546 L12.0018989,13.89946 L12.7089889,13.19237 L13.8219889,14.30537 C12.8789708,15.3566237 12.8000163,16.924316 13.6326406,18.0649974 C14.465265,19.2056788 15.9824278,19.6083077 17.2710886,19.0305788 C18.5597494,18.4528499 19.2685155,17.0522987 18.9708459,15.6717879 C18.6731763,14.2912771 17.4502396,13.307245 16.0380089,13.31189 Z M12.0019389,12.48529 L6.34500885,6.82837 C5.95462838,6.43779925 5.95462838,5.80476075 6.34500885,5.41419 L12.7090089,11.77808 L12.0019389,12.48529 Z M17.6588589,5.41418 C18.0493608,5.80470045 18.0493608,6.43783955 17.6588589,6.82836 L13.4161789,11.07104 L12.7090289,10.36389 L17.6588589,5.41418 Z M16.0380089,18.31189 C14.933455,18.3118237 14.0380847,17.4163639 14.0381289,16.31181 C14.038173,15.2072561 14.933615,14.31189 16.0381689,14.31189 C17.1427227,14.31189 18.0381289,15.2073361 18.0381289,16.31189 C18.0381289,16.8423503 17.8274267,17.3510886 17.4523234,17.7261694 C17.0772201,18.1012502 16.5684691,18.311943 16.0380089,18.31189 L16.0380089,18.31189 Z M10.5877489,12.48529 L9.41294885,13.66003 C8.98956345,13.4345341 8.51780944,13.3150738 8.03812885,13.31189 C6.60527211,13.3028997 5.36349877,14.3023832 5.06606348,15.7040577 C4.76862819,17.1057323 5.49748564,18.5233835 6.81051386,19.0970699 C8.12354209,19.6707564 9.65895208,19.2424057 10.4853704,18.0718537 C11.3117887,16.9013017 11.2015058,15.3110797 10.2214189,14.26581 L11.2948489,13.19238 L10.5877489,12.48529 Z M8.03812885,18.31189 C6.93355935,18.31189 6.03812885,17.4164595 6.03812885,16.31189 C6.03812885,15.2073205 6.93355935,14.31189 8.03812885,14.31189 C9.14269835,14.31189 10.0381289,15.2073205 10.0381289,16.31189 C10.0381289,17.4164595 9.14269835,18.31189 8.03812885,18.31189 Z" id="Color" fill-opacity="0.7" fill="#FFFFFF" fill-rule="nonzero"></path>
    </g>
</svg>