<?xml version="1.0" encoding="UTF-8"?>
<svg width="24px" height="24px" viewBox="0 0 24 24" version="1.1" xmlns="http://www.w3.org/2000/svg" xmlns:xlink="http://www.w3.org/1999/xlink">
    <title>1_Common/common_参数寻优.svg</title>
    <g id="1_Common/common_参数寻优.svg" stroke="none" stroke-width="1" fill="none" fill-rule="evenodd" fill-opacity="0.7">
        <path d="M7,11 L7,18.5 C7,18.7454599 7.17687516,18.9496084 7.41012437,18.9919443 L7.5,19 L17.5,19 C17.7454599,19 17.9496084,18.8231248 17.9919443,18.5898756 L18,18.5 L18,11 L19,11 L19,18.5 C19,19.2796961 18.4051119,19.9204487 17.64446,19.9931334 L17.5,20 L7.5,20 C6.72030388,20 6.07955132,19.4051119 6.00686658,18.64446 L6,18.5 L6,11 L7,11 Z M12.5,3 C13.8807119,3 15,4.11928813 15,5.5 C15,6.70932545 14.1413382,7.71809967 13.0004345,7.94990271 L13,15 L14,15 L12.5,18 L11,15 L12,15 L12.000574,7.9501074 C10.9112792,7.72925936 10.0790396,6.8001946 10.0053177,5.66437569 L10,5.5 C10,4.11928813 11.1192881,3 12.5,3 Z M18.5,5 C19.8807119,5 21,6.11928813 21,7.5 C21,8.88071187 19.8807119,10 18.5,10 C18.0376707,10 17.6046532,9.87450149 17.2331554,9.65571246 L16.1,11.167 L16.099,12 L17,12 L15.5,15 L14,12 L15.099,12 L15.1,10.8333333 L16.4868756,8.98261499 C16.1808666,8.56780305 16,8.05502335 16,7.5 C16,6.11928813 17.1192881,5 18.5,5 Z M6.5,5 C7.88071187,5 9,6.11928813 9,7.5 C9,8.02532282 8.83797266,8.51280212 8.5611665,8.91518939 L10,10.8333333 L9.999,12 L11,12 L9.5,15 L8,12 L8.999,12 L9,11.167 L7.83472238,9.61426828 C7.44853027,9.85858026 6.99078031,10 6.5,10 C5.11928813,10 4,8.88071187 4,7.5 C4,6.11928813 5.11928813,5 6.5,5 Z M18.5,6 C17.6715729,6 17,6.67157288 17,7.5 C17,8.32842712 17.6715729,9 18.5,9 C19.3284271,9 20,8.32842712 20,7.5 C20,6.67157288 19.3284271,6 18.5,6 Z M6.5,6 C5.67157288,6 5,6.67157288 5,7.5 C5,8.32842712 5.67157288,9 6.5,9 C7.32842712,9 8,8.32842712 8,7.5 C8,6.67157288 7.32842712,6 6.5,6 Z M12.5,4 C11.6715729,4 11,4.67157288 11,5.5 C11,6.32842712 11.6715729,7 12.5,7 C13.3284271,7 14,6.32842712 14,5.5 C14,4.67157288 13.3284271,4 12.5,4 Z" id="形状结合" fill="#FFFFFF" fill-rule="nonzero"></path>
    </g>
</svg>