<?xml version="1.0" encoding="UTF-8"?>
<svg width="24px" height="24px" viewBox="0 0 24 24" version="1.1" xmlns="http://www.w3.org/2000/svg" xmlns:xlink="http://www.w3.org/1999/xlink">
    <!-- Generator: Sketch 60 (88103) - https://sketch.com -->
    <title>01_Common_Btn/1_Common/common_rounding_pause</title>
    <desc>Created with Sketch.</desc>
    <g id="01_Common_Btn/1_Common/common_rounding_pause" stroke="none" stroke-width="1" fill="none" fill-rule="evenodd" fill-opacity="0.7">
        <path d="M16.5,5 L14.5,5 C14.2125543,5.01191209 13.9889345,5.25415042 14,5.54163 L14,17.45831 C13.9889731,17.7457858 14.2125624,17.988018 14.5,18 L16.5,18 C16.7874376,17.988018 17.0110269,17.7457858 17,17.45831 L17,5.54163 C17.0110655,5.25415042 16.7874457,5.01191209 16.5,5 Z M16,17 L15,17 L15,6 L16,6 L16,17 Z M9.5,5 L7.5,5 C7.21255425,5.01191209 6.9889345,5.25415042 7,5.54163 L7,17.45831 C6.98897305,17.7457858 7.21256238,17.988018 7.5,18 L9.5,18 C9.78743762,17.988018 10.0110269,17.7457858 10,17.45831 L10,5.54163 C10.0110655,5.25415042 9.78744575,5.01191209 9.5,5 Z M9,17 L8,17 L8,6 L9,6 L9,17 Z" id="Color" fill="#FFFFFF" fill-rule="nonzero"></path>
    </g>
</svg>