<?xml version="1.0" encoding="UTF-8"?>
<svg width="24px" height="24px" viewBox="0 0 24 24" version="1.1" xmlns="http://www.w3.org/2000/svg" xmlns:xlink="http://www.w3.org/1999/xlink">
    <!-- Generator: Sketch 60 (88103) - https://sketch.com -->
    <title>01_Common_Btn/1_Common/common_start</title>
    <desc>Created with Sketch.</desc>
    <g id="01_Common_Btn/1_Common/common_start" stroke="none" stroke-width="1" fill="none" fill-rule="evenodd" fill-opacity="0.7">
        <path d="M11.5,4 C7.35786438,4 4,7.35786438 4,11.5 C4,15.6421356 7.35786438,19 11.5,19 C15.6421356,19 19,15.6421356 19,11.5 C19,7.35786438 15.6421356,4 11.5,4 Z M11.5,18 C7.91014913,18 5,15.0898509 5,11.5 C5,7.91014913 7.91014913,5 11.5,5 C15.0898509,5 18,7.91014913 18,11.5 C18,13.2239072 17.3151805,14.8772076 16.0961941,16.0961941 C14.8772076,17.3151805 13.2239072,18 11.5,18 Z M9.75726,8.07147 C9.60279037,7.97878228 9.41040319,7.97635397 9.25364334,8.06511334 C9.09688348,8.15387272 9,8.32009595 9,8.50024 L9,14.49969 C9,14.679834 9.09688348,14.8460573 9.25364334,14.9348167 C9.41040319,15.023576 9.60279037,15.0211477 9.75726,14.92846 L14.75708,11.9287 C14.9076766,11.8383369 14.9998214,11.6755869 14.9998214,11.49996 C14.9998214,11.3243331 14.9076766,11.1615831 14.75708,11.07122 L9.75726,8.07147 Z M10,13.61719 L10,9.38281 L13.52832,11.5 L10,13.61719 Z" id="Color" fill="#FFFFFF" fill-rule="nonzero"></path>
    </g>
</svg>