<?xml version="1.0" encoding="UTF-8"?>
<svg width="24px" height="24px" viewBox="0 0 24 24" version="1.1" xmlns="http://www.w3.org/2000/svg" xmlns:xlink="http://www.w3.org/1999/xlink">
    <!-- Generator: Sketch 61.2 (89653) - https://sketch.com -->
    <title>icon_select</title>
    <desc>Created with Sketch.</desc>
    <g id="icon_select" stroke="none" stroke-width="1" fill="none" fill-rule="evenodd">
        <g id="icon_sort" opacity="0.297177269">
            <rect id="矩形" x="0" y="0" width="24" height="24"></rect>
        </g>
        <path d="M7,17 L7,20 L4,20 L4,17 L7,17 Z M12.9644661,12.4644661 L20.0161738,14.8150353 C20.0563174,14.8284165 20.0911825,14.8541854 20.1157541,14.8886353 C20.1798946,14.9785616 20.1589911,15.1034574 20.0690649,15.1675979 L20.0690649,15.1675979 L17.9127993,16.7056926 L20.0355339,18.8284271 C20.2307961,19.0236893 20.2307961,19.3402718 20.0355339,19.5355339 C19.8402718,19.7307961 19.5236893,19.7307961 19.3284271,19.5355339 L19.3284271,19.5355339 L17.2056926,17.4127993 L15.6675979,19.5690649 C15.6430262,19.6035148 15.6081612,19.6292837 15.5680175,19.6426649 C15.4632289,19.6775944 15.3499649,19.6209624 15.3150353,19.5161738 L15.3150353,19.5161738 L12.9644661,12.4644661 Z M6,18 L5,18 L5,19 L6,19 L6,18 Z M10,18 L10,19 L8,19 L8,18 L10,18 Z M13,18 L13,19 L11,19 L11,18 L13,18 Z M6,14 L6,16 L5,16 L5,14 L6,14 Z M6,11 L6,13 L5,13 L5,11 L6,11 Z M19,11 L19,13 L18,13 L18,11 L19,11 Z M6,8 L6,10 L5,10 L5,8 L6,8 Z M19,8 L19,10 L18,10 L18,8 L19,8 Z M7,4 L7,7 L4,7 L4,4 L7,4 Z M20,4 L20,7 L17,7 L17,4 L20,4 Z M6,5 L5,5 L5,6 L6,6 L6,5 Z M19,5 L18,5 L18,6 L19,6 L19,5 Z M10,5 L10,6 L8,6 L8,5 L10,5 Z M13,5 L13,6 L11,6 L11,5 L13,5 Z M16,5 L16,6 L14,6 L14,5 L16,5 Z" id="形状结合" fill-opacity="0.7" fill="#FFFFFF" fill-rule="nonzero"></path>
    </g>
</svg>