<?xml version="1.0" encoding="UTF-8"?>
<svg width="24px" height="24px" viewBox="0 0 24 24" version="1.1" xmlns="http://www.w3.org/2000/svg" xmlns:xlink="http://www.w3.org/1999/xlink">
    <!-- Generator: Sketch 61.2 (89653) - https://sketch.com -->
    <title>01_Common_Btn/1_Common/common_filter</title>
    <desc>Created with Sketch.</desc>
    <g id="01_Common_Btn/1_Common/common_filter" stroke="none" stroke-width="1" fill="none" fill-rule="evenodd" fill-opacity="0.7">
        <path d="M10.8894712,11.3579304 C10.9615912,11.4469647 11.000944,11.5580679 11.000944,11.6726472 L11.000944,17.1756285 L12.000944,18.0616285 L12.000944,11.6726472 C12.000944,11.5580679 12.0402968,11.4469647 12.1124169,11.3579304 L16.4524757,6 L6.54941234,6 L10.8894712,11.3579304 Z M5.11241689,5.81471679 C4.84763352,5.48783392 5.08027476,5 5.50094404,5 L17.500944,5 C17.9216133,5 18.1542546,5.48783392 17.8894712,5.81471679 L13.000944,11.8497475 L13.000944,19.1726472 C13.000944,19.6036896 12.491994,19.8327362 12.1693665,19.5468882 L10.1693665,17.7748882 C10.0622582,17.6799903 10.000944,17.5437479 10.000944,17.4006472 L10.000944,11.8497475 L5.11241689,5.81471679 Z" id="Color" fill="#FFFFFF" fill-rule="nonzero"></path>
    </g>
</svg>