<?xml version="1.0" standalone="no"?><!DOCTYPE svg PUBLIC "-//W3C//DTD SVG 1.1//EN" "http://www.w3.org/Graphics/SVG/1.1/DTD/svg11.dtd"><svg t="1591350089260" class="icon" viewBox="0 0 1024 1024" version="1.1" xmlns="http://www.w3.org/2000/svg" p-id="2796" xmlns:xlink="http://www.w3.org/1999/xlink" width="24" height="24"><defs><style type="text/css"></style></defs><path d="M238.933 247.467h-81.066c-17.067 0-29.867-12.8-29.867-29.867s12.8-29.867 29.867-29.867h81.066C251.733 153.6 285.867 128 324.267 128c38.4 0 72.533 25.6 85.333 59.733h456.533c17.067 0 29.867 12.8 29.867 29.867s-12.8 29.867-29.867 29.867H409.6C396.8 281.6 362.667 307.2 324.267 307.2s-72.534-25.6-85.334-59.733zM294.4 217.6c0 17.067 12.8 29.867 29.867 29.867 17.066 0 29.866-12.8 29.866-29.867s-12.8-29.867-29.866-29.867c-17.067 0-29.867 12.8-29.867 29.867z m-55.467 618.667h-81.066c-17.067 0-29.867-12.8-29.867-29.867s12.8-29.867 29.867-29.867h81.066c12.8-34.133 46.934-59.733 85.334-59.733 38.4 0 72.533 25.6 85.333 59.733h456.533c17.067 0 29.867 12.8 29.867 29.867s-12.8 29.867-29.867 29.867H409.6C396.8 870.4 362.667 896 324.267 896s-72.534-25.6-85.334-59.733zM294.4 806.4c0 17.067 12.8 29.867 29.867 29.867 17.066 0 29.866-12.8 29.866-29.867s-12.8-29.867-29.866-29.867c-17.067 0-29.867 12.8-29.867 29.867z m490.667-264.533C772.267 576 738.133 601.6 699.733 601.6c-38.4 0-72.533-25.6-85.333-59.733H157.867C140.8 541.867 128 529.067 128 512s12.8-29.867 29.867-29.867H614.4C627.2 448 661.333 422.4 699.733 422.4s72.534 25.6 85.334 59.733h81.066C883.2 482.133 896 494.933 896 512s-12.8 29.867-29.867 29.867h-81.066zM729.6 512c0-17.067-12.8-29.867-29.867-29.867-17.066 0-29.866 12.8-29.866 29.867s12.8 29.867 29.866 29.867c17.067 0 29.867-12.8 29.867-29.867z" p-id="2797" fill="#ffffff"></path></svg>