<?xml version="1.0" encoding="UTF-8"?>
<svg width="24px" height="24px" viewBox="0 0 24 24" version="1.1" xmlns="http://www.w3.org/2000/svg" xmlns:xlink="http://www.w3.org/1999/xlink">
    <!-- Generator: Sketch 61.2 (89653) - https://sketch.com -->
    <title>icon_publish</title>
    <desc>Created with Sketch.</desc>
    <g id="icon_publish" stroke="none" stroke-width="1" fill="none" fill-rule="evenodd" fill-opacity="0.7">
        <g id="nav_publish-(1)" transform="translate(4.000000, 5.000000)" fill="#FFFFFF" fill-rule="nonzero">
            <path d="M15.2,0.2 C15.1,0.1 14.9,1.31838984e-16 14.7,0.1 L0.9,5.8 C0.7,5.9 0.6,6.1 0.6,6.3 C0.6,6.5 0.7,6.7 0.9,6.8 L6,8.4 L6,12.7 C6,12.9 6.2,13.1 6.4,13.2 C6.4,13.2 6.5,13.2 6.6,13.2 C6.8,13.2 6.9,13.1 7,13 L8.6,10.7 C8.6,10.7 8.6,10.7 8.6,10.7 L11.5,13.9 C11.6,14 11.7,14.1 11.9,14.1 C11.9,14.1 12,14.1 12,14.1 C12.2,14.1 12.3,13.9 12.4,13.7 L15.5,0.8 C15.4,0.5 15.4,0.3 15.2,0.2 Z M12.4,2.1 L6.6,7.5 L2.5,6.2 L12.4,2.1 Z M7.7,10 L7,11 L7,8.9 L7.9,9.9 C7.8,9.9 7.7,10 7.7,10 L7.7,10 Z M11.5,12.4 L7.6,8 L14.1,1.9 L11.5,12.4 Z" id="形状"></path>
        </g>
    </g>
</svg>