<?xml version="1.0" encoding="UTF-8"?>
<svg width="24px" height="24px" viewBox="0 0 24 24" version="1.1" xmlns="http://www.w3.org/2000/svg" xmlns:xlink="http://www.w3.org/1999/xlink">
    <!-- Generator: Sketch 61.2 (89653) - https://sketch.com -->
    <title>01_Common_Btn/1_Common/common_search</title>
    <desc>Created with Sketch.</desc>
    <g id="01_Common_Btn/1_Common/common_search" stroke="none" stroke-width="1" fill="none" fill-rule="evenodd" fill-opacity="0.7">
        <path d="M19.5,18.7928932 C19.6952621,18.9881554 19.6952621,19.3047379 19.5,19.5 C19.3047379,19.6952621 18.9881554,19.6952622 18.7928932,19.5 L14.7291058,15.4362127 C13.5923384,16.4110488 12.1149477,17 10.5,17 C6.91014913,17 4,14.0898509 4,10.5 C4,6.91014913 6.91014913,4 10.5,4 C14.0898509,4 17,6.91014913 17,10.5 C17,12.1149477 16.4110487,13.5923385 15.4362126,14.7291059 L19.5,18.7928932 Z M10.5,16 C13.5375661,16 16,13.5375661 16,10.5 C16,7.46243388 13.5375661,5 10.5,5 C7.46243388,5 5,7.46243388 5,10.5 C5,13.5375661 7.46243388,16 10.5,16 Z" id="Color" fill="#FFFFFF" fill-rule="nonzero"></path>
    </g>
</svg>